<svg width="580" height="580" viewBox="0 0 580 580" fill="none" xmlns="http://www.w3.org/2000/svg">
<path d="M40 120C40 75.8172 75.8172 40 120 40H460C504.183 40 540 75.8172 540 120V460C540 504.183 504.183 540 460 540H120C75.8172 540 40 504.183 40 460V120Z" fill="#383838"/>
<path d="M120 41H460V39H120V41ZM539 120V460H541V120H539ZM460 539H120V541H460V539ZM41 460V120H39V460H41ZM120 539C76.3695 539 41 503.63 41 460H39C39 504.735 75.2649 541 120 541V539ZM539 460C539 503.63 503.63 539 460 539V541C504.735 541 541 504.735 541 460H539ZM460 41C503.63 41 539 76.3695 539 120H541C541 75.2649 504.735 39 460 39V41ZM120 39C75.2649 39 39 75.2649 39 120H41C41 76.3695 76.3695 41 120 41V39Z" fill="black" fill-opacity="0.1"/>
<path d="M201.091 483V389.909H237.818C244.848 389.909 250.848 391.167 255.818 393.682C260.818 396.167 264.621 399.697 267.227 404.273C269.864 408.818 271.182 414.167 271.182 420.318C271.182 426.5 269.848 431.818 267.182 436.273C264.515 440.697 260.652 444.091 255.591 446.455C250.561 448.818 244.47 450 237.318 450H212.727V434.182H234.136C237.894 434.182 241.015 433.667 243.5 432.636C245.985 431.606 247.833 430.061 249.045 428C250.288 425.939 250.909 423.379 250.909 420.318C250.909 417.227 250.288 414.621 249.045 412.5C247.833 410.379 245.97 408.773 243.455 407.682C240.97 406.561 237.833 406 234.045 406H220.773V483H201.091ZM251.364 440.636L274.5 483H252.773L230.136 440.636H251.364ZM285.091 483V389.909H347.818V406.136H304.773V428.318H344.591V444.545H304.773V466.773H348V483H285.091ZM363.466 483V389.909H400.193C407.254 389.909 413.269 391.258 418.239 393.955C423.208 396.621 426.996 400.333 429.602 405.091C432.239 409.818 433.557 415.273 433.557 421.455C433.557 427.636 432.223 433.091 429.557 437.818C426.89 442.545 423.027 446.227 417.966 448.864C412.936 451.5 406.845 452.818 399.693 452.818H376.284V437.045H396.511C400.299 437.045 403.42 436.394 405.875 435.091C408.36 433.758 410.208 431.924 411.42 429.591C412.663 427.227 413.284 424.515 413.284 421.455C413.284 418.364 412.663 415.667 411.42 413.364C410.208 411.03 408.36 409.227 405.875 407.955C403.39 406.652 400.239 406 396.42 406H383.148V483H363.466ZM446.341 483V389.909H466.023V466.773H505.932V483H446.341Z" fill="white"/>
<path d="M307.364 242.909H326.818V307.818C326.818 313.818 325.47 319.03 322.773 323.455C320.106 327.879 316.394 331.288 311.636 333.682C306.879 336.076 301.348 337.273 295.045 337.273C289.439 337.273 284.348 336.288 279.773 334.318C275.227 332.318 271.621 329.288 268.955 325.227C266.288 321.136 264.97 316 265 309.818H284.591C284.652 312.273 285.152 314.379 286.091 316.136C287.061 317.864 288.379 319.197 290.045 320.136C291.742 321.045 293.742 321.5 296.045 321.5C298.47 321.5 300.515 320.985 302.182 319.955C303.879 318.894 305.167 317.348 306.045 315.318C306.924 313.288 307.364 310.788 307.364 307.818V242.909ZM393.591 269.682C393.227 266.015 391.667 263.167 388.909 261.136C386.152 259.106 382.409 258.091 377.682 258.091C374.47 258.091 371.758 258.545 369.545 259.455C367.333 260.333 365.636 261.561 364.455 263.136C363.303 264.712 362.727 266.5 362.727 268.5C362.667 270.167 363.015 271.621 363.773 272.864C364.561 274.106 365.636 275.182 367 276.091C368.364 276.97 369.939 277.742 371.727 278.409C373.515 279.045 375.424 279.591 377.455 280.045L385.818 282.045C389.879 282.955 393.606 284.167 397 285.682C400.394 287.197 403.333 289.061 405.818 291.273C408.303 293.485 410.227 296.091 411.591 299.091C412.985 302.091 413.697 305.53 413.727 309.409C413.697 315.106 412.242 320.045 409.364 324.227C406.515 328.379 402.394 331.606 397 333.909C391.636 336.182 385.167 337.318 377.591 337.318C370.076 337.318 363.53 336.167 357.955 333.864C352.409 331.561 348.076 328.152 344.955 323.636C341.864 319.091 340.242 313.47 340.091 306.773H359.136C359.348 309.894 360.242 312.5 361.818 314.591C363.424 316.652 365.561 318.212 368.227 319.273C370.924 320.303 373.97 320.818 377.364 320.818C380.697 320.818 383.591 320.333 386.045 319.364C388.53 318.394 390.455 317.045 391.818 315.318C393.182 313.591 393.864 311.606 393.864 309.364C393.864 307.273 393.242 305.515 392 304.091C390.788 302.667 389 301.455 386.636 300.455C384.303 299.455 381.439 298.545 378.045 297.727L367.909 295.182C360.061 293.273 353.864 290.288 349.318 286.227C344.773 282.167 342.515 276.697 342.545 269.818C342.515 264.182 344.015 259.258 347.045 255.045C350.106 250.833 354.303 247.545 359.636 245.182C364.97 242.818 371.03 241.636 377.818 241.636C384.727 241.636 390.758 242.818 395.909 245.182C401.091 247.545 405.121 250.833 408 255.045C410.879 259.258 412.364 264.136 412.455 269.682H393.591ZM445.42 242.909L464.193 274.636H464.92L483.784 242.909H506.011L477.602 289.455L506.648 336H484.011L464.92 304.227H464.193L445.102 336H422.557L451.693 289.455L423.102 242.909H445.42Z" fill="white"/>
</svg>
